<svg width="225" height="84" viewBox="0 0 225 84" fill="none" xmlns="http://www.w3.org/2000/svg">
<path d="M73.6152 57.0732C71.8737 57.0732 71.0029 56.6175 71.0029 55.7061V27.9229C71.0029 27.4508 71.2145 27.1009 71.6377 26.873C72.0609 26.6289 72.7201 26.5068 73.6152 26.5068H75.9102C77.2936 26.5068 78.1969 26.9056 78.6201 27.7031L85.9199 40.667L86.2861 41.3018L86.6523 40.5449L94.001 27.7031C94.4404 26.9056 95.3519 26.5068 96.7354 26.5068H99.0059C100.747 26.5068 101.618 26.9788 101.618 27.9229V55.7061C101.618 56.6175 100.747 57.0732 99.0059 57.0732H97.7363C95.9948 57.0732 95.124 56.6175 95.124 55.7061V37.7129L94.9531 37.6641L88.6543 48.9189C88.2799 49.4723 87.7021 49.749 86.9209 49.749H85.6758C85.2689 49.749 84.9271 49.6839 84.6504 49.5537C84.3737 49.4072 84.1377 49.1956 83.9424 48.9189L77.6191 37.6641L77.4482 37.7129V55.7061C77.4482 56.6175 76.5856 57.0732 74.8604 57.0732H73.6152ZM113.532 57.3662C111.351 57.3662 109.74 56.7965 108.698 55.6572C107.657 54.5016 107.136 52.7194 107.136 50.3105V35.5889C107.136 35.1331 107.347 34.7913 107.771 34.5635C108.194 34.3356 108.853 34.2217 109.748 34.2217H110.944C111.84 34.2217 112.499 34.3356 112.922 34.5635C113.345 34.7913 113.557 35.1331 113.557 35.5889V49.334C113.557 50.2292 113.76 50.9046 114.167 51.3604C114.574 51.8161 115.241 52.0439 116.169 52.0439C116.966 52.0439 117.658 51.7917 118.244 51.2871C118.846 50.7663 119.31 50.1803 119.636 49.5293V35.5889C119.636 35.1331 119.847 34.7913 120.271 34.5635C120.694 34.3356 121.353 34.2217 122.248 34.2217H123.444C124.34 34.2217 124.999 34.3356 125.422 34.5635C125.845 34.7913 126.057 35.1331 126.057 35.5889V49.334C126.057 50.7012 126.089 51.7754 126.154 52.5566C126.236 53.3216 126.333 54.0378 126.447 54.7051C126.529 55.1445 126.569 55.4538 126.569 55.6328C126.569 55.9583 126.268 56.2269 125.666 56.4385C125.064 56.6501 124.372 56.8047 123.591 56.9023C122.826 57 122.207 57.0488 121.735 57.0488C121.215 57.0488 120.84 56.8454 120.612 56.4385C120.401 56.0153 120.23 55.4212 120.1 54.6562L119.978 54.0459C119.294 54.9736 118.374 55.763 117.219 56.4141C116.079 57.0488 114.851 57.3662 113.532 57.3662ZM133.479 57C132.876 57 132.437 56.8617 132.16 56.585C131.883 56.3083 131.745 55.8688 131.745 55.2666V28.3379C131.745 27.7357 131.883 27.3044 132.16 27.0439C132.437 26.7673 132.876 26.6289 133.479 26.6289H142.072C145.588 26.6289 148.176 27.3125 149.836 28.6797C151.496 30.0306 152.326 31.9023 152.326 34.2949C152.326 35.7272 151.879 37.0456 150.983 38.25C150.088 39.4544 148.965 40.3333 147.614 40.8867L147.663 41.0576C148.802 41.2855 149.812 41.7493 150.69 42.4492C151.586 43.1491 152.277 44.0036 152.766 45.0127C153.27 46.0218 153.522 47.0798 153.522 48.1865C153.522 51.0348 152.619 53.2158 150.812 54.7295C149.006 56.2432 146.296 57 142.683 57H133.479ZM141.413 38.7139C142.683 38.7139 143.667 38.4128 144.367 37.8105C145.083 37.1921 145.441 36.4108 145.441 35.4668C145.441 33.3184 144.123 32.2441 141.486 32.2441H138.435V38.7139H141.413ZM142.683 51.3115C143.936 51.3115 144.912 51.0104 145.612 50.4082C146.312 49.7897 146.662 48.9189 146.662 47.7959C146.662 46.6891 146.255 45.8509 145.441 45.2812C144.644 44.7116 143.488 44.4268 141.975 44.4268H138.435V51.3115H142.683ZM162.727 57.3662C160.513 57.3662 158.885 56.7884 157.844 55.6328C156.818 54.4609 156.306 52.9147 156.306 50.9941C156.306 49.5456 156.607 48.2435 157.209 47.0879C157.811 45.916 159.032 44.9313 160.871 44.1338C162.71 43.3363 165.339 42.9375 168.757 42.9375V41.4971C168.757 40.6507 168.488 40.0241 167.951 39.6172C167.414 39.2103 166.56 39.0068 165.388 39.0068C164.411 39.0068 163.573 39.1126 162.873 39.3242C162.173 39.5195 161.416 39.7881 160.603 40.1299C160.179 40.3252 159.919 40.4229 159.821 40.4229C159.528 40.4229 159.203 40.2031 158.845 39.7637C158.503 39.3242 158.202 38.8197 157.941 38.25C157.681 37.6803 157.551 37.249 157.551 36.9561C157.551 36.4515 157.909 35.9714 158.625 35.5156C159.357 35.0436 160.358 34.6693 161.628 34.3926C162.897 34.0996 164.305 33.9531 165.852 33.9531C169.107 33.9531 171.475 34.6042 172.956 35.9062C174.437 37.1921 175.178 38.958 175.178 41.2041V49.334C175.178 50.6849 175.21 51.7347 175.275 52.4834C175.357 53.2321 175.463 53.9727 175.593 54.7051C175.674 55.1445 175.715 55.4538 175.715 55.6328C175.715 55.9583 175.406 56.2269 174.787 56.4385C174.185 56.6501 173.493 56.8047 172.712 56.9023C171.931 57 171.304 57.0488 170.832 57.0488C170.327 57.0488 169.961 56.8372 169.733 56.4141C169.522 55.9746 169.351 55.3805 169.221 54.6318C169.204 54.5342 169.188 54.4365 169.172 54.3389C169.156 54.2412 169.131 54.1436 169.099 54.0459C168.936 54.3551 168.586 54.7702 168.049 55.291C167.528 55.8118 166.812 56.292 165.9 56.7314C164.989 57.1546 163.931 57.3662 162.727 57.3662ZM164.851 52.2637C165.664 52.2637 166.429 52.0114 167.146 51.5068C167.862 50.986 168.399 50.3268 168.757 49.5293V47.1367C164.704 47.1367 162.678 48.2028 162.678 50.335C162.678 50.9046 162.865 51.3685 163.239 51.7266C163.63 52.0846 164.167 52.2637 164.851 52.2637ZM183.454 57.0732C181.729 57.0732 180.866 56.6175 180.866 55.7061V41.9365C180.866 39.8532 180.728 38.1198 180.451 36.7363C180.37 36.2969 180.329 35.9876 180.329 35.8086C180.329 35.4831 180.63 35.2227 181.232 35.0273C181.851 34.8158 182.543 34.6611 183.308 34.5635C184.089 34.4658 184.715 34.417 185.188 34.417C185.692 34.417 186.042 34.6042 186.237 34.9785C186.449 35.3529 186.636 35.8981 186.799 36.6143L186.945 37.249C187.629 36.3376 188.54 35.5645 189.68 34.9297C190.835 34.2786 192.072 33.9531 193.391 33.9531C195.572 33.9531 197.183 34.5228 198.225 35.6621C199.266 36.8014 199.787 38.5674 199.787 40.96V55.7061C199.787 56.6175 198.908 57.0732 197.15 57.0732H195.954C194.229 57.0732 193.366 56.6175 193.366 55.7061V41.9365C193.366 41.0576 193.155 40.3903 192.731 39.9346C192.325 39.4788 191.657 39.251 190.729 39.251C189.948 39.251 189.257 39.5114 188.654 40.0322C188.052 40.5531 187.596 41.1309 187.287 41.7656V55.7061C187.287 56.6175 186.408 57.0732 184.65 57.0732H183.454ZM207.819 57.0732C206.078 57.0732 205.207 56.6175 205.207 55.7061V25.6768C205.207 25.2048 205.419 24.8548 205.842 24.627C206.265 24.3828 206.924 24.2607 207.819 24.2607H209.016C210.757 24.2607 211.628 24.7327 211.628 25.6768V42.8398L211.774 42.8887L217.048 35.0518C217.276 34.71 217.593 34.4902 218 34.3926C218.407 34.2786 218.968 34.2217 219.685 34.2217H221.296C222.924 34.2217 223.737 34.4414 223.737 34.8809C223.737 35.1087 223.599 35.3854 223.322 35.7109L217.316 44.3291L224.372 55.5107C224.616 55.9176 224.738 56.2188 224.738 56.4141C224.738 56.8535 223.908 57.0732 222.248 57.0732H220.441C219.742 57.0732 219.172 57.0163 218.732 56.9023C218.293 56.7884 217.992 56.5687 217.829 56.2432L211.774 46.2578L211.628 46.3311V55.7061C211.628 56.6175 210.757 57.0732 209.016 57.0732H207.819Z" fill="white"/>
<path d="M23.9934 55C23.9934 55.5304 23.7827 56.0391 23.4077 56.4142C23.0326 56.7893 22.5239 57 21.9934 57H17.9934C17.463 57 16.9543 56.7893 16.5792 56.4142C16.2042 56.0391 15.9934 55.5304 15.9934 55C15.9934 54.4696 16.2042 53.9609 16.5792 53.5858C16.9543 53.2107 17.463 53 17.9934 53H21.9934C22.5239 53 23.0326 53.2107 23.4077 53.5858C23.7827 53.9609 23.9934 54.4696 23.9934 55ZM41.9934 53H37.9934C37.463 53 36.9543 53.2107 36.5792 53.5858C36.2042 53.9609 35.9934 54.4696 35.9934 55C35.9934 55.5304 36.2042 56.0391 36.5792 56.4142C36.9543 56.7893 37.463 57 37.9934 57H41.9934C42.5239 57 43.0326 56.7893 43.4077 56.4142C43.7827 56.0391 43.9934 55.5304 43.9934 55C43.9934 54.4696 43.7827 53.9609 43.4077 53.5858C43.0326 53.2107 42.5239 53 41.9934 53ZM22.9934 41C23.5868 41 24.1668 40.8241 24.6602 40.4944C25.1535 40.1648 25.538 39.6962 25.7651 39.148C25.9921 38.5999 26.0516 37.9967 25.9358 37.4147C25.82 36.8328 25.5343 36.2982 25.1148 35.8787C24.6952 35.4591 24.1607 35.1734 23.5787 35.0576C22.9968 34.9419 22.3936 35.0013 21.8454 35.2284C21.2972 35.4554 20.8287 35.8399 20.499 36.3333C20.1694 36.8266 19.9934 37.4067 19.9934 38C19.9934 38.7956 20.3095 39.5587 20.8721 40.1213C21.4347 40.6839 22.1978 41 22.9934 41ZM36.9934 41C37.5868 41 38.1668 40.8241 38.6602 40.4944C39.1535 40.1648 39.538 39.6962 39.7651 39.148C39.9921 38.5999 40.0516 37.9967 39.9358 37.4147C39.82 36.8328 39.5343 36.2982 39.1148 35.8787C38.6952 35.4591 38.1607 35.1734 37.5787 35.0576C36.9968 34.9419 36.3936 35.0013 35.8454 35.2284C35.2972 35.4554 34.8287 35.8399 34.499 36.3333C34.1694 36.8266 33.9934 37.4067 33.9934 38C33.9934 38.7956 34.3095 39.5587 34.8721 40.1213C35.4347 40.6839 36.1978 41 36.9934 41ZM59.0909 37.53C58.7159 37.9893 58.2434 38.3595 57.7077 38.6137C57.172 38.8679 56.5864 38.9999 55.9934 39H47.9934V47C49.6725 48.2593 50.9128 50.015 51.5386 52.0183C52.1644 54.0217 52.144 56.1712 51.4803 58.1623C50.8166 60.1534 49.5432 61.8852 47.8405 63.1124C46.1379 64.3396 44.0923 65 41.9934 65H17.9934C15.8946 65 13.849 64.3396 12.1463 63.1124C10.4437 61.8852 9.17032 60.1534 8.50661 58.1623C7.8429 56.1712 7.82251 54.0217 8.44831 52.0183C9.07411 50.015 10.3144 48.2593 11.9934 47V39H3.99344C3.40515 38.999 2.82431 38.8683 2.29232 38.6172C1.76034 38.366 1.2903 38.0006 0.915702 37.547C0.541109 37.0934 0.271186 36.5627 0.125169 35.9928C-0.020848 35.4229 -0.0393631 34.8279 0.0709428 34.25C0.712228 31.0801 2.42877 28.229 4.93019 26.1791C7.4316 24.1291 10.5643 23.0061 13.7984 23H14.2084C12.8738 21.699 11.8132 20.1439 11.0893 18.4264C10.3653 16.7089 9.99274 14.8638 9.99344 13C9.99344 12.4696 10.2042 11.9609 10.5792 11.5858C10.9543 11.2107 11.463 11 11.9934 11C12.5239 11 13.0326 11.2107 13.4077 11.5858C13.7827 11.9609 13.9934 12.4696 13.9934 13C13.9934 15.6522 15.047 18.1957 16.9224 20.0711C18.7977 21.9464 21.3413 23 23.9934 23H35.9934C37.3067 23 38.607 22.7413 39.8203 22.2388C41.0335 21.7362 42.1359 20.9997 43.0645 20.0711C43.9931 19.1425 44.7297 18.0401 45.2322 16.8268C45.7348 15.6136 45.9934 14.3132 45.9934 13C45.9934 12.4696 46.2042 11.9609 46.5792 11.5858C46.9543 11.2107 47.463 11 47.9934 11C48.5239 11 49.0326 11.2107 49.4077 11.5858C49.7827 11.9609 49.9934 12.4696 49.9934 13C49.9941 14.8638 49.6215 16.7089 48.8976 18.4264C48.1737 20.1439 47.1131 21.699 45.7784 23H46.1884C49.4225 23.0061 52.5553 24.1291 55.0567 26.1791C57.5581 28.229 59.2747 31.0801 59.9159 34.25C60.0295 34.8237 60.0144 35.4155 59.8717 35.9826C59.7291 36.5498 59.4624 37.0783 59.0909 37.53ZM15.9934 45.2C16.6518 45.0673 17.3218 45.0003 17.9934 45H41.9934C42.6651 45.0003 43.335 45.0673 43.9934 45.2V33C43.9934 31.4087 43.3613 29.8826 42.2361 28.7574C41.1109 27.6321 39.5847 27 37.9934 27H21.9934C20.4021 27 18.876 27.6321 17.7508 28.7574C16.6256 29.8826 15.9934 31.4087 15.9934 33V45.2ZM11.9934 35V33C11.99 30.8357 12.6921 28.7293 13.9934 27H13.7934C11.4893 27.0038 9.25673 27.8013 7.47176 29.2584C5.6868 30.7156 4.45842 32.7432 3.99344 35H11.9934ZM47.9934 55C47.9934 53.4087 47.3613 51.8826 46.2361 50.7574C45.1109 49.6321 43.5847 49 41.9934 49H17.9934C16.4021 49 14.876 49.6321 13.7508 50.7574C12.6256 51.8826 11.9934 53.4087 11.9934 55C11.9934 56.5913 12.6256 58.1174 13.7508 59.2426C14.876 60.3679 16.4021 61 17.9934 61H41.9934C43.5847 61 45.1109 60.3679 46.2361 59.2426C47.3613 58.1174 47.9934 56.5913 47.9934 55ZM55.9934 35C55.5289 32.743 54.3006 30.7151 52.5156 29.2579C50.7305 27.8007 48.4978 27.0033 46.1934 27H45.9934C47.2948 28.7293 47.9969 30.8357 47.9934 33V35H55.9934Z" fill="white"/>
</svg>
